<svg width="271" height="323" viewBox="0 0 271 323" fill="none" xmlns="http://www.w3.org/2000/svg">
<path fill-rule="evenodd" clip-rule="evenodd" d="M125.24 1.77562e-06H243.579C250.853 -0.00265209 257.829 2.96967 262.971 8.26252C268.114 13.5554 271.002 20.7348 271 28.22V294.29C271 309.875 258.723 322.51 243.579 322.51H125.24C110.096 322.51 97.8198 309.875 97.8198 294.29V28.22C97.8172 20.7348 100.705 13.5554 105.848 8.26252C110.991 2.96967 117.967 -0.00265209 125.24 1.77562e-06V1.77562e-06Z" fill="#56557E"/>
<path fill-rule="evenodd" clip-rule="evenodd" d="M244.376 312.87H124.433C112.553 312.727 103.008 302.748 103.057 290.52V27.9199C103.008 15.6919 112.553 5.71267 124.433 5.56995H129.719C130.77 5.56946 131.631 6.42888 131.663 7.50995C131.74 9.50995 131.235 17.1099 133.276 17.1299C137.055 17.1799 235.718 17.0099 236.01 16.7999C237.215 15.9299 236.603 9.09995 236.68 7.47995C236.727 6.41068 237.584 5.56886 238.624 5.56995H244.395C256.276 5.71267 265.821 15.6919 265.772 27.9199V290.52C265.821 302.756 256.264 312.738 244.376 312.87Z" fill="#E5E8F5"/>
<path fill-rule="evenodd" clip-rule="evenodd" d="M103.019 81.4V27.67C103.077 15.5448 112.614 5.73022 124.395 5.67005H129.681C130.725 5.66919 131.583 6.51684 131.624 7.59005C131.702 9.59005 130.76 17.01 137.756 17.01C141.535 17.01 230.929 16.63 231.288 16.63C237.118 16.63 236.564 9.15005 236.642 7.55005C236.704 6.4926 237.556 5.66814 238.585 5.67005H244.357C256.139 5.73022 265.675 15.5448 265.734 27.67V81.4H103.019Z" fill="#8F97B9"/>
<path fill-rule="evenodd" clip-rule="evenodd" d="M198.086 236.29H248.914C253.293 236.29 256.843 239.943 256.843 244.45V296.76C256.843 298.923 256.007 300.998 254.52 302.526C253.033 304.055 251.016 304.913 248.914 304.91H198.086C193.712 304.91 190.167 301.261 190.167 296.76V244.45C190.164 242.287 190.998 240.211 192.483 238.681C193.968 237.15 195.984 236.29 198.086 236.29Z" fill="white"/>
<path fill-rule="evenodd" clip-rule="evenodd" d="M242.229 272.93C239.78 270.76 218.909 261.78 218.909 261.78C216.081 261.88 216.091 267.24 213.691 267.05C209.416 266.72 207.599 263.79 206.423 264.24C202.633 265.69 204.052 278.97 204.052 278.97L242.919 278.83C242.919 278.83 243.686 274.21 242.229 272.93Z" fill="#8F97B9"/>
<path fill-rule="evenodd" clip-rule="evenodd" d="M203.984 276.56C203.928 277.363 203.944 278.17 204.033 278.97L242.899 278.83C243.251 277.97 243.326 277.017 243.113 276.11C242.987 275.4 203.984 276.56 203.984 276.56Z" fill="#BBC0D6"/>
<path fill-rule="evenodd" clip-rule="evenodd" d="M119.313 235.99H170.141C174.515 235.99 178.06 239.639 178.06 244.14V296.45C178.063 298.613 177.229 300.689 175.744 302.219C174.259 303.75 172.243 304.61 170.141 304.61H119.313C114.94 304.61 111.394 300.961 111.394 296.46V244.15C111.391 241.987 112.225 239.911 113.71 238.381C115.195 236.85 117.211 235.99 119.313 235.99Z" fill="white"/>
<path fill-rule="evenodd" clip-rule="evenodd" d="M155.187 267.88C155.187 267.88 158.481 265.15 151.048 261.76C149.493 261.05 131.43 273.84 124.57 274.85C122.918 275.1 122.627 277.58 123.501 278.19C127.096 280.77 166.39 276.51 166.39 276.51C167.168 275.13 165.098 265.41 164.01 266.31C161.931 268.02 155.187 267.88 155.187 267.88Z" fill="#BBC0D6"/>
<path fill-rule="evenodd" clip-rule="evenodd" d="M155.187 267.88C155.187 267.88 158.481 265.15 151.048 261.76C149.493 261.05 131.43 273.84 124.57 274.85C122.918 275.1 166.731 274.51 166.206 272.1C165.652 269.5 164.573 265.84 164.01 266.31C161.931 268.02 155.187 267.88 155.187 267.88Z" fill="#8F97B9"/>
<path fill-rule="evenodd" clip-rule="evenodd" d="M198.086 154.28H248.914C251.016 154.277 253.033 155.135 254.52 156.664C256.007 158.192 256.843 160.267 256.843 162.43V214.74C256.843 219.247 253.293 222.9 248.914 222.9H198.086C195.984 222.9 193.968 222.04 192.483 220.509C190.998 218.979 190.164 216.903 190.167 214.74V162.4C190.183 157.911 193.724 154.28 198.086 154.28V154.28Z" fill="white"/>
<path fill-rule="evenodd" clip-rule="evenodd" d="M243.91 196.72H203.1C202.916 195.128 203.218 193.517 203.965 192.11L242.929 191.53L243.91 196.72Z" fill="#8F97B9"/>
<path fill-rule="evenodd" clip-rule="evenodd" d="M203.955 192.07C206.491 187.87 214.575 188.75 219.929 183.44C224.156 179.26 228.509 180.3 228.509 180.3C228.509 180.3 230.53 186.13 235.835 185.47C238.391 185.16 237.866 183.12 239.324 182.27C239.933 181.928 240.685 182.012 241.209 182.48L243.482 194.48L203.051 195.04C203.069 193.981 203.383 192.95 203.955 192.07Z" fill="#8F97B9"/>
<path fill-rule="evenodd" clip-rule="evenodd" d="M119.313 153.98H170.141C174.515 153.98 178.06 157.629 178.06 162.13V214.4C178.063 216.563 177.229 218.639 175.744 220.169C174.259 221.7 172.243 222.56 170.141 222.56H119.313C117.211 222.56 115.195 221.7 113.71 220.169C112.225 218.639 111.391 216.563 111.394 214.4V162.09C111.415 157.604 114.955 153.98 119.313 153.98Z" fill="white"/>
<path fill-rule="evenodd" clip-rule="evenodd" d="M158.617 199.77C158.277 197.17 152.029 198.77 148.385 196.64C142.768 193.231 137.408 189.39 132.353 185.15H130.866V202.1H135.861V193.62C135.861 193.62 143.634 201.82 147.423 202.69C150.824 203.47 159.035 202.99 158.617 199.77Z" fill="#8F97B9"/>
<path fill-rule="evenodd" clip-rule="evenodd" d="M137.823 173.87L147.297 178.08L147.112 192.67C147.112 192.67 151.135 196.58 154.186 196.79C157.597 197.03 159.21 199.35 158.617 200.02C156.829 202.08 150.222 202.02 147.705 201.02C142.322 199.02 134.393 190.42 131.187 185.81C129.234 183.14 137.823 173.87 137.823 173.87Z" fill="#8F97B9"/>
<path fill-rule="evenodd" clip-rule="evenodd" d="M171.734 95.9201H196.493C198.594 95.9174 200.611 96.7749 202.098 98.3036C203.586 99.8323 204.421 101.907 204.421 104.07V129.55C204.426 131.714 203.594 133.791 202.108 135.322C200.622 136.854 198.605 137.713 196.502 137.71H171.734C169.633 137.713 167.616 136.855 166.129 135.327C164.641 133.798 163.806 131.723 163.806 129.56V104.08C163.806 99.5734 167.356 95.9201 171.734 95.9201Z" fill="white"/>
<path fill-rule="evenodd" clip-rule="evenodd" d="M190.342 129.4H178.682L179.275 114.4L175.544 116.24L172.269 110.45L179.071 104.45H181.51C181.51 104.45 181.753 106.9 184.784 106.82C186.659 106.82 187.835 104.44 187.835 104.44H190.187L196.629 109.13L194.559 114.9L190.148 114.18L190.342 129.4Z" fill="#BBC0D6"/>
<path fill-rule="evenodd" clip-rule="evenodd" d="M224.156 95.9201H248.914C251.016 95.9174 253.033 96.7749 254.52 98.3036C256.007 99.8323 256.843 101.907 256.843 104.07V129.55C256.845 131.713 256.012 133.789 254.527 135.319C253.041 136.85 251.026 137.71 248.924 137.71H224.156C222.054 137.713 220.037 136.855 218.55 135.327C217.063 133.798 216.227 131.723 216.227 129.56V104.08C216.227 99.5734 219.777 95.9201 224.156 95.9201Z" fill="white"/>
<path fill-rule="evenodd" clip-rule="evenodd" d="M244.736 129.99H241.986L236.612 110.56L232.269 129.99H228.499L230.238 103.99H243.142L244.736 129.99Z" fill="#BBC0D6"/>
<path fill-rule="evenodd" clip-rule="evenodd" d="M119.313 95.92H144.081C148.454 95.9255 151.999 99.5696 152.01 104.07V129.55C152.012 131.713 151.179 133.789 149.694 135.319C148.208 136.85 146.193 137.71 144.091 137.71H119.313C114.94 137.71 111.394 134.061 111.394 129.56V104.08C111.391 101.917 112.225 99.8412 113.71 98.3107C115.195 96.7801 117.211 95.92 119.313 95.92V95.92Z" fill="white"/>
<path fill-rule="evenodd" clip-rule="evenodd" d="M119.566 111.71H128.797C131.07 113.776 133.567 115.564 136.24 117.04C139.281 118.66 142.837 117.52 144.159 120.78C144.236 121.307 144.236 121.843 144.159 122.37H119.051V120.78L119.566 111.71Z" fill="#BBC0D6"/>
<path opacity="0.2" fill-rule="evenodd" clip-rule="evenodd" d="M115.349 55.4701H252.879C255.068 55.4701 256.843 57.2968 256.843 59.5501V69.2501C256.838 71.4995 255.065 73.3201 252.879 73.3201H115.349C113.165 73.3201 111.395 71.4979 111.395 69.2501V59.5501C111.395 57.3007 113.164 55.4756 115.349 55.4701Z" fill="#E5E8F5"/>
<path fill-rule="evenodd" clip-rule="evenodd" d="M115.534 25.52H177.837C179.298 25.4455 180.681 26.2055 181.433 27.497C182.186 28.7885 182.186 30.4016 181.433 31.6931C180.681 32.9846 179.298 33.7446 177.837 33.67H115.534C114.072 33.7446 112.69 32.9846 111.937 31.6931C111.185 30.4016 111.185 28.7885 111.937 27.497C112.69 26.2055 114.072 25.4455 115.534 25.52Z" fill="#E5E8F5"/>
<path fill-rule="evenodd" clip-rule="evenodd" d="M115.534 40.5H220.26C221.721 40.4255 223.104 41.1855 223.856 42.477C224.609 43.7685 224.609 45.3815 223.856 46.673C223.104 47.9646 221.721 48.7245 220.26 48.65H115.534C114.072 48.7245 112.69 47.9646 111.937 46.673C111.185 45.3815 111.185 43.7685 111.937 42.477C112.69 41.1855 114.072 40.4255 115.534 40.5Z" fill="#E5E8F5"/>
<path fill-rule="evenodd" clip-rule="evenodd" d="M11.4657 320.31C11.864 312.76 4.5474 300.71 4.5474 300.71C3.42026 300.38 0 304.05 0 304.05L8.60896 321.93L11.4657 320.31Z" fill="#5D5D7D"/>
<path fill-rule="evenodd" clip-rule="evenodd" d="M4.88754 310.13C4.88754 310.13 1.69075 302.36 3.26485 301.49C5.5094 300.25 8.78392 295.22 8.78392 295.22L12.8163 295.83C11.9224 301.36 9.0657 308.39 8.92967 310.25C8.85193 311.15 4.88754 310.13 4.88754 310.13Z" fill="#FFECB3"/>
<path fill-rule="evenodd" clip-rule="evenodd" d="M61.0206 317.93C57.4449 315.23 42.4327 316.87 42.4327 316.87C41.6942 317.87 41.665 322.95 41.665 322.95H61.1567C61.1567 322.95 62.3032 318.89 61.0206 317.93Z" fill="#5D5D7D"/>
<path fill-rule="evenodd" clip-rule="evenodd" d="M50.1184 320.47C50.1184 320.47 42.5588 320.47 42.52 318.47C42.4714 315.64 42.7726 311.26 42.7726 311.26C42.7726 311.26 48.1167 310.54 48.2042 312.19C48.4763 317.38 50.4779 315.38 51.8965 316.31C52.5864 316.8 50.1184 320.47 50.1184 320.47Z" fill="#FFECB3"/>
<path fill-rule="evenodd" clip-rule="evenodd" d="M9.8331 119.06C10.8728 130.61 22.0567 125.67 31.9191 131.39C41.0333 136.67 49.4091 122.52 49.4091 110.91C49.4091 99.3 47.1062 87.15 36.8746 87.15C26.6429 87.15 9.37642 113.92 9.8331 119.06Z" fill="#694A52"/>
<path fill-rule="evenodd" clip-rule="evenodd" d="M10.6204 304.93L6.41309 298.17L24.0002 255.57C24.0002 255.57 12.8844 236.69 11.4852 223.13C10.2512 211.13 13.3216 204.04 13.3216 204.04L36.2627 203.04C36.2627 203.04 35.2327 207.45 35.0675 224.04C35.0189 229.86 39.0222 250.04 36.7582 260.73C35.8546 265.08 15.0609 303.83 10.6204 304.93Z" fill="#5D5D7D"/>
<path fill-rule="evenodd" clip-rule="evenodd" d="M48.9819 314.06H42.0053C42.0053 314.06 39.0029 242.95 36.3891 233.69C33.6479 223.465 32.9113 212.781 34.2223 202.26H50.4005C50.4005 202.26 56.6872 240.58 56.5317 257.21C56.4151 269.29 48.9819 314.06 48.9819 314.06Z" fill="#5D5D7D"/>
<path fill-rule="evenodd" clip-rule="evenodd" d="M24.3208 142.4L45.8141 143.34L39.7509 118.08L31.2099 115.87L24.3208 142.4Z" fill="#FFDFAE"/>
<path fill-rule="evenodd" clip-rule="evenodd" d="M50.8668 204.49H25.6035V135.4C38.2352 151.26 44.2012 135.4 44.2012 135.4L50.8668 204.49Z" fill="#E0F5FF"/>
<path fill-rule="evenodd" clip-rule="evenodd" d="M28.9754 202.93C37.1568 193.66 29.4709 180.93 29.3932 167.85C29.3932 164.45 28.2466 159.14 27.994 155.75C27.762 151.303 27.2883 146.873 26.5753 142.48C25.8758 139.42 27.7025 130.92 27.7997 128.97C26.1016 129.518 24.4342 130.162 22.8053 130.9C16.7227 133.2 10.2416 134.21 9.82383 136.99C8.45378 146.13 15.887 182.67 15.887 182.67L9.64893 204.49C9.64893 204.49 24.9527 207.48 28.9754 202.93Z" fill="#ADADEA"/>
<path fill-rule="evenodd" clip-rule="evenodd" d="M42.4429 129.38C48.098 131.5 54.0057 136.86 56.843 140.75C56.8592 140.77 56.9107 140.829 56.9934 140.923C58.492 142.632 70.2428 156.029 68.4932 165.08C67.5119 170.23 56.7458 182.63 53.2478 186.55C53.481 196.7 53.8016 204.49 53.8016 204.49C51.9915 204.969 50.1159 205.131 48.2534 204.97C42.5773 203.822 43.8116 193.132 44.9361 183.393C45.3689 179.645 45.7854 176.038 45.7854 173.17C45.7854 169.806 45.2999 161.221 44.8671 153.567C44.5652 148.228 44.2889 143.342 44.221 141C43.9696 137.079 43.3744 133.19 42.4429 129.38ZM53.2963 151.82C52.9563 158.91 52.9465 168.27 53.0729 177.14L60.0106 163.5L53.2963 151.82Z" fill="#9499EA"/>
<path fill-rule="evenodd" clip-rule="evenodd" d="M48.0976 154.08L42.5299 153.08C42.2673 153.037 41.9992 153.107 41.788 153.274C41.5769 153.44 41.4412 153.688 41.4125 153.96L38.4975 166.37C38.399 166.67 38.4205 166.997 38.5572 167.281C38.694 167.564 38.9347 167.78 39.2263 167.88C39.3117 167.906 39.3997 167.923 39.4886 167.93L44.8425 167.73C45.2891 167.68 45.6579 167.349 45.7656 166.9L48.8749 155.74C49.096 155.088 48.7668 154.375 48.1364 154.14L48.0976 154.08Z" fill="#30312C"/>
<path fill-rule="evenodd" clip-rule="evenodd" d="M44.6772 167.16C43.9193 169.16 37.9241 171.96 37.9241 171.96L36.4375 167.4C36.4375 167.4 39.3525 161.53 41.1501 162.24C42.2675 162.72 45.1825 165.89 44.6772 167.16Z" fill="#FFECB3"/>
<path fill-rule="evenodd" clip-rule="evenodd" d="M39.0027 171.48C39.0027 171.48 14.3612 187.41 10.5717 183.32C2.90526 175.05 9.82352 136.99 9.82352 136.99C15.945 135.58 16.7223 151.62 16.7223 151.62C16.7223 151.62 16.7806 166.78 16.081 171.62L36.3111 167.24L39.0027 171.48Z" fill="#9499EA"/>
<path fill-rule="evenodd" clip-rule="evenodd" d="M42.3162 122.73C42.3162 122.73 35.602 117.13 31.1421 116.04C31.1421 116.04 30.1704 119.81 29.1016 123.95C30.4813 127.07 37.0109 130.28 39.7899 130.65C42.0636 130.96 42.3162 122.73 42.3162 122.73Z" fill="#F4CA92"/>
<path fill-rule="evenodd" clip-rule="evenodd" d="M28.9751 114.4C28.9751 106.21 32.6966 101.56 35.699 101.56C35.699 101.56 34.6302 106.91 36.5152 107.76C39.9452 109.31 47.6019 108.02 47.6019 111.61C47.6019 119.79 41.8983 127.73 40.674 127.73C37.6715 127.73 28.9751 122.59 28.9751 114.4Z" fill="#FFDFAE"/>
<path fill-rule="evenodd" clip-rule="evenodd" d="M49.7591 189.67L51.3915 188.09L49.3413 182.66L47.7866 184.95L49.7591 189.67Z" fill="#FFECB3"/>
<path fill-rule="evenodd" clip-rule="evenodd" d="M51.11 193.73C49.7594 193.73 46.7084 191.56 46.7084 188.88C46.7084 186.2 46.0379 184.04 47.3886 184.04C48.7392 184.04 52.4509 193.73 51.11 193.73Z" fill="#9499EA"/>
</svg>
